<svg width="228" height="69" viewBox="0 0 228 69" fill="none" xmlns="http://www.w3.org/2000/svg"><path d="M26.0917 13.8078C39.2899 13.8078 50.0007 24.5186 50.0007 37.7167C50.0007 50.9149 39.2899 61.6257 26.0917 61.6257C12.8936 61.6257 2.1828 50.9149 2.1828 37.7167C2.1828 24.5186 12.9443 13.8078 26.0917 13.8078ZM26.0917 11.6758C11.6753 11.6758 0 23.3511 0 37.7675C0 52.1839 11.6753 63.8592 26.0917 63.8592C40.5082 63.8592 52.1835 52.1839 52.1835 37.7675C52.1835 23.3511 40.5082 11.6758 26.0917 11.6758Z" fill="#4A357D"/><path d="M46.6993 49.8984C42.5368 57.1574 34.6687 61.6752 26.1407 61.6752C17.5619 61.6752 9.74452 57.1574 5.58203 49.8984H46.6993Z" fill="url(#paint0_radial_1067:36753)"/><path d="M32.0308 17.7687V22.9465C31.5231 23.2003 29.3403 24.2155 26.1423 24.2155C22.9443 24.2155 20.7615 23.2003 20.2539 22.9465V17.7687C20.2539 14.0124 24.4164 5.33203 26.1423 5.33203C27.8174 5.33203 32.0308 14.0124 32.0308 17.7687Z" fill="white"/><path d="M29.7472 14.316C29.5442 14.113 28.4781 13.3516 26.0923 13.3516C23.7065 13.3516 22.6913 14.113 22.4375 14.316C22.3867 14.3668 22.3867 14.3668 22.3867 14.4176V15.0775C22.3867 15.179 22.4882 15.2805 22.5897 15.179C22.9958 14.8744 24.0618 14.3668 26.0416 14.3668C28.0213 14.3668 29.0873 14.9252 29.4934 15.179C29.5949 15.2298 29.6964 15.179 29.6964 15.0775V14.4176C29.7979 14.3668 29.798 14.316 29.7472 14.316Z" fill="#8257E5"/><path d="M32.0312 36.7031C32.0312 36.7031 39.1379 42.3885 39.544 50.4597C39.544 50.9165 39.1379 51.2718 38.7318 51.1196C36.6506 50.4597 35.2293 47.7185 32.0312 47.7185V36.7031Z" fill="#8257E5"/><path d="M20.2042 36.7031C20.2042 36.7031 13.0975 42.3885 12.6914 50.4597C12.6914 50.9165 13.0976 51.2718 13.5036 51.1196C15.5849 50.4597 17.0062 47.7185 20.2042 47.7185V36.7031Z" fill="#8257E5"/><path d="M32.0308 26.2969C32.0308 34.8249 32.0308 47.82 32.0308 47.82H20.2539C20.2539 47.82 20.2539 34.8757 20.2539 26.2969C20.7615 26.5507 22.9443 27.5659 26.1423 27.5659C29.2895 27.5659 31.4724 26.5507 32.0308 26.2969Z" fill="white"/><path d="M26.0932 36.7031C25.4333 36.7031 24.6719 43.4545 24.6719 50.7642C24.6719 51.9318 25.3825 53.0485 26.0932 53.0485C26.8038 53.0485 27.5145 51.881 27.5145 50.7642C27.5653 43.5052 26.7531 36.7031 26.0932 36.7031Z" fill="#8257E5"/><path d="M26.0915 47.7695H20.2031L21.4722 50.5107C21.4722 50.5107 24.9748 50.866 26.0915 50.866C27.2083 50.866 30.7109 50.5107 30.7109 50.5107L31.9799 47.7695H26.0915Z" fill="#8257E5"/><path d="M26.3961 3.3503V1.77667H27.0561V0H10V46.8027H11.1675V42.9447L13.7564 40.3559L15.5331 42.1326L15.5838 42.1833L16.2437 41.2188L14.5686 39.5437L16.2437 37.8685V39.5437H17.4113V1.77667H25.787V3.3503C25.2286 3.50259 24.7718 4.01021 24.7718 4.61935C24.7718 5.07621 24.9748 5.43155 25.3301 5.68536C25.3809 5.73612 25.4824 5.78688 25.5839 5.83764V6.80212H26.5992V5.83764C26.7007 5.78688 26.7515 5.73612 26.853 5.68536C27.2083 5.43155 27.4114 5.07621 27.4114 4.61935C27.4114 4.01021 26.9545 3.50259 26.3961 3.3503ZM16.2437 1.77667L13.7564 4.26402L11.2691 1.77667H16.2437ZM16.2437 3.45182V6.80212L14.5686 5.12697L16.2437 3.45182ZM11.1675 3.3503L12.9442 5.12697L11.1675 6.90365V3.3503ZM11.1675 8.52803L13.7564 5.93917L16.2437 8.42651V8.62956L13.7564 11.1169L11.1675 8.52803ZM16.2437 10.3047V13.655L14.5686 11.9799L16.2437 10.3047ZM11.1675 10.2032L12.9442 11.9799L11.1675 13.7565V10.2032ZM11.1675 17.1068L12.9442 18.8835L11.1675 20.6602V17.1068ZM11.1675 23.9597L12.9442 25.7364L11.1675 27.5131V23.9597ZM11.1675 30.8634L12.9442 32.64L11.1675 34.4167V30.8634ZM11.1675 41.2696V37.7163L12.9442 39.4929L11.1675 41.2696ZM16.2437 36.1934L13.7564 38.6807L11.1675 36.0919V36.0411L13.7564 33.4522L16.2437 35.9396V36.1934ZM16.2437 34.3152L14.5686 32.64L16.2437 30.9649V34.3152ZM16.2437 29.2897L13.7564 31.7771L11.1675 29.1882V29.1375L13.7564 26.5486L16.2437 29.0359V29.2897ZM16.2437 27.4623L14.5686 25.7872L16.2437 24.112V27.4623ZM16.2437 22.4369L13.7564 24.9242L11.1675 22.3353V22.2846L13.7564 19.6957L16.2437 22.183V22.4369ZM16.2437 20.5587L14.5686 18.8835L16.2437 17.2084V20.5587ZM16.2437 15.3302V15.5332L13.7564 18.0205L12.2843 16.5484L11.1675 15.4317V15.3809L13.7564 12.7921L16.2437 15.3302Z" fill="url(#paint1_linear_1067:36753)"/><path d="M85.464 27.7188C87.9513 27.7188 90.0326 28.0233 91.7077 28.6325C93.3829 29.2416 94.7026 30.0538 95.7179 31.0691C96.7331 32.0843 97.4438 33.2518 97.8499 34.5716C98.256 35.8914 98.459 37.3128 98.459 38.7341C98.459 40.2062 98.2052 41.5768 97.7484 42.9474C97.2915 44.318 96.5301 45.4855 95.5149 46.5515C94.4996 47.5667 93.1798 48.4297 91.5046 49.0388C89.8295 49.648 87.8498 49.9526 85.464 49.9526H72.7734V27.7188H85.464ZM77.342 45.9931H85.3625C86.9869 45.9931 88.3574 45.7901 89.4741 45.384C90.5401 44.9779 91.4031 44.4195 92.063 43.7596C92.7229 43.0489 93.1798 42.2875 93.4336 41.4245C93.6874 40.5616 93.8397 39.6478 93.8397 38.7341C93.8397 37.8204 93.6874 36.9067 93.4336 36.0437C93.1798 35.1808 92.7229 34.4701 92.063 33.7594C91.4031 33.0995 90.5401 32.5919 89.4741 32.1858C88.4081 31.7797 87.0376 31.6274 85.3625 31.6274H77.342V45.9931Z" fill="white"/><path d="M106.732 25.3828V29.2915H101.555V25.3828H106.732ZM101.91 32.8956H106.377V49.9517H101.91V32.8956Z" fill="white"/><path d="M109.473 44.2651H113.585C113.839 45.0265 114.346 45.6864 115.158 46.1433C115.971 46.6509 116.986 46.9047 118.255 46.9047C119.118 46.9047 119.778 46.8032 120.285 46.6509C120.742 46.4986 121.097 46.2448 121.301 45.9402C121.504 45.6357 121.554 45.2803 121.554 44.8742C121.554 44.4174 121.402 44.0113 121.098 43.7575C120.793 43.5037 120.336 43.3006 119.727 43.1483C119.118 42.996 118.306 42.8438 117.341 42.6915C116.377 42.5392 115.463 42.3361 114.549 42.1331C113.636 41.93 112.874 41.6255 112.163 41.2194C111.503 40.864 110.945 40.3564 110.539 39.798C110.133 39.2396 109.93 38.4782 109.93 37.666C109.93 36.8538 110.133 36.0924 110.539 35.4832C110.945 34.8233 111.503 34.3157 112.214 33.8589C112.925 33.402 113.788 33.0974 114.752 32.8436C115.717 32.6406 116.783 32.4883 117.899 32.4883C119.575 32.4883 120.996 32.7421 122.113 33.2497C123.23 33.7573 124.092 34.4172 124.651 35.331C125.209 36.1939 125.514 37.2092 125.514 38.3767H121.554C121.351 37.5137 120.996 36.9046 120.438 36.5492C119.879 36.1939 119.067 35.9909 117.899 35.9909C116.783 35.9909 115.92 36.1432 115.361 36.4985C114.803 36.8538 114.498 37.3107 114.498 37.9198C114.498 38.3767 114.651 38.7828 115.006 39.0366C115.361 39.2904 115.869 39.4935 116.58 39.6457C117.29 39.798 118.153 40.0011 119.219 40.1534C120.133 40.3564 120.945 40.5595 121.757 40.7625C122.57 41.0163 123.28 41.2701 123.94 41.6255C124.6 41.9808 125.108 42.4377 125.463 43.0468C125.818 43.6052 126.021 44.3666 126.021 45.2803C126.021 46.3971 125.717 47.3108 125.057 48.0722C124.448 48.8337 123.534 49.3921 122.367 49.7982C121.199 50.2043 119.828 50.4073 118.204 50.4073C116.783 50.4073 115.514 50.255 114.498 49.9504C113.483 49.6459 112.62 49.2398 111.91 48.7322C111.199 48.2245 110.691 47.7169 110.336 47.1585C109.981 46.6001 109.727 46.0925 109.575 45.5849C109.473 44.9758 109.422 44.5697 109.473 44.2651Z" fill="white"/><path d="M149.019 43.1991C148.918 44.6712 148.41 45.9403 147.598 47.057C146.786 48.123 145.618 48.9352 144.146 49.4936C142.674 50.052 140.948 50.3566 138.918 50.3566C136.837 50.3566 134.958 50.0012 133.283 49.3413C131.608 48.6814 130.339 47.6662 129.374 46.3464C128.41 45.0265 127.953 43.4022 127.953 41.4732C127.953 39.5442 128.41 37.9198 129.374 36.5493C130.339 35.2295 131.608 34.2142 133.283 33.5543C134.958 32.8436 136.837 32.5391 138.918 32.5391C140.948 32.5391 142.674 32.8436 144.095 33.402C145.517 33.9604 146.684 34.7726 147.497 35.8386C148.309 36.9046 148.816 38.1737 148.969 39.6458H144.908C144.502 38.529 143.791 37.6153 142.725 36.9554C141.659 36.2955 140.39 35.9909 138.918 35.9909C137.75 35.9909 136.633 36.1939 135.669 36.6C134.704 37.0061 133.943 37.6153 133.334 38.4275C132.776 39.2397 132.471 40.2549 132.471 41.4732C132.471 42.6915 132.776 43.7067 133.334 44.5189C133.892 45.3311 134.704 45.9403 135.669 46.3464C136.633 46.7525 137.75 46.9555 138.918 46.9555C140.491 46.9555 141.811 46.6509 142.826 45.991C143.842 45.3311 144.552 44.4174 144.908 43.2499H149.019V43.1991Z" fill="white"/><path d="M161.656 50.3058C159.524 50.3058 157.595 49.9504 155.971 49.2905C154.346 48.5799 153.077 47.6154 152.164 46.2956C151.25 44.9758 150.793 43.3514 150.793 41.4224C150.793 39.4935 151.25 37.8691 152.164 36.5493C153.077 35.2294 154.346 34.2142 155.971 33.5035C157.595 32.7929 159.473 32.4883 161.656 32.4883C163.788 32.4883 165.666 32.8436 167.291 33.5035C168.915 34.2142 170.184 35.1787 171.098 36.5493C172.012 37.8691 172.468 39.4935 172.468 41.4224C172.468 43.3514 172.012 44.9758 171.098 46.2956C170.184 47.6154 168.915 48.6306 167.291 49.2905C165.666 49.9504 163.788 50.3058 161.656 50.3058ZM161.656 46.9047C162.824 46.9047 163.89 46.7017 164.854 46.2956C165.819 45.8895 166.529 45.2803 167.088 44.4681C167.646 43.6559 167.9 42.6915 167.9 41.5239C167.9 40.3564 167.646 39.3412 167.088 38.529C166.529 37.7168 165.819 37.0569 164.854 36.6508C163.94 36.1939 162.824 35.9909 161.656 35.9909C160.488 35.9909 159.372 36.1939 158.458 36.6508C157.494 37.1076 156.732 37.7168 156.174 38.529C155.615 39.3412 155.311 40.3564 155.311 41.5239C155.311 42.6915 155.565 43.6559 156.123 44.4681C156.681 45.2803 157.443 45.8895 158.407 46.2956C159.372 46.7017 160.438 46.9047 161.656 46.9047Z" fill="white"/><path d="M183.738 47.0064H182.114L188.357 32.8945H193.231L185.058 49.8998H180.845L172.824 32.8438H177.748L183.738 47.0064Z" fill="white"/><path d="M209.881 44.2651H214.195C213.992 45.4326 213.535 46.4479 212.723 47.3616C211.911 48.2753 210.845 48.986 209.525 49.5443C208.155 50.052 206.53 50.3565 204.601 50.3565C202.419 50.3565 200.49 50.0012 198.865 49.2905C197.19 48.5799 195.87 47.5646 194.957 46.2448C194.043 44.925 193.535 43.3006 193.535 41.4224C193.535 39.5442 193.992 37.9198 194.906 36.6C195.819 35.2802 197.088 34.265 198.713 33.5543C200.337 32.8436 202.266 32.4883 204.449 32.4883C206.683 32.4883 208.561 32.8436 210.033 33.5543C211.505 34.265 212.622 35.331 213.332 36.7523C214.043 38.1736 214.348 40.0011 214.246 42.2346H198.002C198.104 43.0976 198.459 43.9098 198.967 44.6204C199.525 45.3311 200.236 45.8895 201.149 46.2956C202.063 46.7017 203.18 46.9047 204.449 46.9047C205.87 46.9047 207.038 46.6509 208.002 46.1433C209.018 45.6357 209.627 45.0265 209.881 44.2651ZM204.297 35.8893C202.672 35.8893 201.302 36.2447 200.287 36.9553C199.271 37.666 198.611 38.5797 198.307 39.595H209.881C209.779 38.4782 209.221 37.5645 208.256 36.8538C207.292 36.2447 205.972 35.8893 204.297 35.8893Z" fill="white"/><path d="M216.938 32.8944H221.405V49.9505H216.938V32.8944ZM227.953 36.5493C226.684 36.5493 225.567 36.8031 224.653 37.3107C223.74 37.8183 222.978 38.3767 222.369 39.0874C221.811 39.798 221.405 40.458 221.151 41.1686L221.1 39.2904C221.1 39.0366 221.201 38.6305 221.354 38.0721C221.506 37.5137 221.76 36.9554 222.064 36.3462C222.369 35.7371 222.826 35.1279 223.333 34.5188C223.841 33.9604 224.501 33.4528 225.262 33.0974C226.024 32.7421 226.887 32.5391 227.902 32.5391V36.5493H227.953Z" fill="white"/><path d="M25.9134 68.655C29.6022 68.655 32.5925 65.6647 32.5925 61.9759C32.5925 58.2872 29.6022 55.2969 25.9134 55.2969C22.2247 55.2969 19.2344 58.2872 19.2344 61.9759C19.2344 65.6647 22.2247 68.655 25.9134 68.655Z" fill="#8257E5"/><path d="M28.5438 58.6948L27.6758 58.5742C27.6516 58.5742 27.6275 58.5742 27.6034 58.5983L27.2417 59.0806C27.2176 59.1047 27.2176 59.1529 27.2176 59.177C27.2176 59.2011 27.1935 59.2494 27.1694 59.2252L26.8559 59.1529C26.8077 59.1529 26.7595 59.1529 26.7354 59.2011L25.5298 60.7443C25.5057 60.7684 25.4574 60.7925 25.4333 60.7684L24.9752 60.5514C24.927 60.5273 24.8787 60.5273 24.8546 60.5514L24.6135 60.7202C24.5653 60.7443 24.5171 60.7443 24.493 60.7202L24.3724 60.672C24.3001 60.6237 24.2036 60.672 24.2036 60.7443L24.1313 61.106C24.1072 61.2024 24.1554 61.2748 24.2277 61.323L24.3965 61.4194L24.9511 61.757L25.2163 61.9258C25.2887 61.974 25.3851 61.974 25.4574 61.9017L25.9156 61.4918C25.9638 61.4677 26.012 61.4436 26.0602 61.4677L26.2049 61.54C26.2531 61.5641 26.3014 61.5641 26.3496 61.5159L26.5907 61.2989C26.6389 61.2748 26.6872 61.2507 26.7354 61.2748L27.0729 61.4436C27.1212 61.4677 27.1935 61.4436 27.2176 61.3953L27.3864 61.2024L28.592 59.6593C28.6402 59.5869 28.6161 59.4905 28.5197 59.4664L28.2544 59.4181C28.2062 59.394 28.1821 59.3458 28.2062 59.2976L28.6161 58.7912C28.6402 58.7671 28.6161 58.6948 28.5438 58.6948Z" fill="white"/><path d="M24.5638 61.8069C24.5397 61.7828 24.5156 61.8069 24.5156 61.831L24.6362 62.1685C24.6362 62.1927 24.6362 62.2168 24.6362 62.2409L24.5156 62.6749C24.5156 62.699 24.5156 62.7231 24.5397 62.7472L24.8532 62.9884C24.8773 63.0125 24.9255 63.0125 24.9496 62.9884L25.2872 62.699C25.3113 62.6749 25.3354 62.6749 25.3595 62.6749L25.7453 62.6267C25.7695 62.6267 25.7695 62.5785 25.7695 62.5785L24.5638 61.8069Z" fill="white"/><path d="M24.4432 62.94C24.4191 62.9158 24.395 62.9158 24.3709 62.94L24.1056 63.0605C24.0815 63.0605 24.0815 63.0846 24.0815 63.1087L23.5028 64.5314C23.5028 64.5314 23.5028 64.5314 23.527 64.5314L23.6475 64.4831C23.6475 64.4831 23.6475 64.4831 23.6716 64.4831V64.5072L23.2617 65.1824C23.2617 65.2065 23.2617 65.2065 23.2858 65.2065L24.7808 63.6874C24.8049 63.6633 24.8049 63.6633 24.8049 63.6392L24.829 63.2534C24.829 63.2293 24.829 63.2052 24.8049 63.1811L24.4432 62.94Z" fill="white"/><defs><radialGradient id="paint0_radial_1067:36753" cx="0" cy="0" r="1" gradientUnits="userSpaceOnUse" gradientTransform="translate(26.1134 50.006) scale(34.7389 19.7741)"><stop stop-color="#6042A6"/><stop offset="0.493664" stop-color="#6042A6" stop-opacity="0"/></radialGradient><linearGradient id="paint1_linear_1067:36753" x1="18.7005" y1="17.9423" x2="18.7005" y2="46.6285" gradientUnits="userSpaceOnUse"><stop stop-color="#714DC6"/><stop offset="0.677" stop-color="#714DC6" stop-opacity="0"/></linearGradient></defs></svg>